HIERARCHY
ROOT Hips
{
	OFFSET -3.958830 18.904000 13.208200
	CHANNELS 6 Xposition Yposition Zposition Zrotation Yrotation Xrotation 
	JOINT LHipJoint
	{
		OFFSET 0.000000 0.000000 0.000000
		CHANNELS 3 Zrotation Yrotation Xrotation
		JOINT LeftUpLeg
		{
			OFFSET 1.800000 -1.400000 0.085000
			CHANNELS 3 Zrotation Yrotation Xrotation
			JOINT LeftLeg
			{
				OFFSET 2.215000 -6.000000 0.000000
				CHANNELS 3 Zrotation Yrotation Xrotation
				JOINT LeftFoot
				{
					OFFSET 2.500000 -6.900000 0.000000
					CHANNELS 3 Zrotation Yrotation Xrotation
					JOINT LeftToeBase
					{
						OFFSET 0.200000 -0.500000 1.950000
						CHANNELS 3 Zrotation Yrotation Xrotation
						End Site
						{
							OFFSET 0.000000 0.000000 0.000000
						}
					}
				}
			}
		}
	}
	JOINT RHipJoint
	{
		OFFSET 0.000000 0.000000 0.000000
		CHANNELS 3 Zrotation Yrotation Xrotation
		JOINT RightUpLeg
		{
			OFFSET -1.800000 -1.400000 0.085000
			CHANNELS 3 Zrotation Yrotation Xrotation
			JOINT RightLeg
			{
				OFFSET -2.215000 -6.000000 0.000000
				CHANNELS 3 Zrotation Yrotation Xrotation
				JOINT RightFoot
				{
					OFFSET -2.500000 -6.900000 0.000000
					CHANNELS 3 Zrotation Yrotation Xrotation
					JOINT RightToeBase
					{
						OFFSET -0.200000 -0.500000 1.950000
						CHANNELS 3 Zrotation Yrotation Xrotation
						End Site
						{
							OFFSET 0.000000 0.000000 0.000000
						}
					}
				}
			}
		}
	}
	JOINT LowerBack
	{
		OFFSET 0.000000 0.000000 0.000000
		CHANNELS 3 Zrotation Yrotation Xrotation
		JOINT Spine
		{
			OFFSET -0.087000 1.940000 -0.288900
			CHANNELS 3 Zrotation Yrotation Xrotation
			JOINT Spine1
			{
				OFFSET 0.000000 1.950000 0.060000
				CHANNELS 3 Zrotation Yrotation Xrotation
				JOINT Neck
				{
					OFFSET 0.000000 0.000000 0.000000
					CHANNELS 3 Zrotation Yrotation Xrotation
					JOINT Neck1
					{
						OFFSET 0.000000 1.600000 0.340000
						CHANNELS 3 Zrotation Yrotation Xrotation
						JOINT Head
						{
							OFFSET 0.000000 1.667000 -0.240000
							CHANNELS 3 Zrotation Yrotation Xrotation
							End Site
							{
								OFFSET 0.000000 0.000000 0.000000
							}
						}
					}
				}
				JOINT LeftShoulder
				{
					OFFSET 0.000000 0.000000 0.000000
					CHANNELS 3 Zrotation Yrotation Xrotation
					JOINT LeftArm
					{
						OFFSET 2.700000 1.550000 -0.730000
						CHANNELS 3 Zrotation Yrotation Xrotation
						JOINT LeftForeArm
						{
							OFFSET 5.450000 0.000000 0.000000
							CHANNELS 3 Zrotation Yrotation Xrotation
							JOINT LeftHand
							{
								OFFSET 3.450000 0.000000 0.000000
								CHANNELS 3 Zrotation Yrotation Xrotation
								JOINT LeftHandIndex1
								{
									OFFSET 0.750000 0.000000 0.000000
									CHANNELS 3 Zrotation Yrotation Xrotation
									End Site
									{
										OFFSET 0.000000 0.000000 0.000000
									}
								}
							}
						}
					}
				}
				JOINT RightShoulder
				{
					OFFSET 0.000000 0.000000 0.000000
					CHANNELS 3 Zrotation Yrotation Xrotation
					JOINT RightArm
					{
						OFFSET -2.700000 1.550000 -0.730000
						CHANNELS 3 Zrotation Yrotation Xrotation
						JOINT RightForeArm
						{
							OFFSET -5.450000 0.000000 0.000000
							CHANNELS 3 Zrotation Yrotation Xrotation
							JOINT RightHand
							{
								OFFSET -3.450000 0.000000 0.000000
								CHANNELS 3 Zrotation Yrotation Xrotation
								JOINT RightHandIndex1
								{
									OFFSET -0.750000 0.000000 0.000000
									CHANNELS 3 Zrotation Yrotation Xrotation
									End Site
									{
										OFFSET 0.000000 0.000000 0.000000
									}
								}
							}
						}
					}
				}
			}
		}
	}
}
MOTION
Frames: 11
Frame Time: 0.016667
-0.725740 19.036090 -4.773810 -35.815561 25.465649 14.106389 -16.682746 10.138953 6.803563 18.838981 -34.314896 -78.012999 -47.269501 54.805832 86.027968 -11.195215 34.321911 -0.644755 7.137900 -4.519130 0.564900 17.892437 -3.653399 4.563893 37.799915 22.053384 -28.872777 -136.940399 -6.361702 11.707675 -8.821978 -14.068009 19.582442 -3.238230 9.977350 -5.139550 -0.872795 -9.693483 -10.453273 28.521978 -27.189049 80.946427 -3.497162 18.649928 51.263578 23.142064 7.280997 -25.134666 32.557482 -29.898746 100.032614 -28.403730 -29.944440 -86.873020 47.591762 -52.165368 47.243818 44.803004 -28.616379 154.669978 152.480414 -83.088470 -6.403344 -10.809127 -22.879772 14.741540 6.327020 -14.935770 3.618190 -81.189460 28.495922 16.380435 94.957774 60.902954 -53.341850 -94.746195 -38.052399 56.805659 -39.455167 -0.228445 -11.116040 15.059940 11.251270 -14.176300 
-0.746860 18.993880 -4.838760 -39.583530 22.456843 15.384910 -16.579411 9.726336 7.252828 21.995105 -30.042604 -83.097678 -43.212900 54.114863 89.343911 -10.839652 34.374573 -0.262423 7.490030 -3.945810 0.338210 18.027372 -3.433621 5.154114 45.979698 25.699705 -31.605724 -130.219983 -4.697442 11.608649 -9.477483 -14.303331 19.354162 -2.690440 9.862730 -4.508090 -1.436596 -8.440695 -10.368129 36.502004 -27.713839 77.675846 -1.488811 18.577468 48.995924 18.887330 5.603930 -22.471729 36.323373 -36.201560 96.080251 -27.866530 -29.655400 -92.777910 55.795646 -59.537657 45.394598 38.275827 -28.013448 162.499088 110.881647 -75.977346 -1.584562 -18.545984 -19.424857 14.686330 6.287180 -14.255450 4.140550 -80.422753 36.796892 15.906171 100.332896 53.769235 -50.722778 -94.487713 -31.537559 35.355663 -39.500956 1.927806 -10.726210 14.950570 10.679940 -14.021540 
-0.743980 19.258260 -4.971660 -37.371476 18.474446 17.777083 -16.443203 9.160541 7.267832 20.560044 -25.069107 -82.242819 -47.792721 54.488218 81.002751 -10.818003 32.865645 0.373806 7.771950 -3.505740 0.055770 18.228215 -2.964349 6.015434 37.565595 29.873440 -39.488376 -120.792493 15.588802 26.044397 -10.462153 -15.473926 19.505624 -2.349460 9.482110 -4.426230 -1.668891 -7.549654 -10.667030 37.812595 -22.037427 80.185212 1.975301 13.836775 43.121863 15.272185 2.734103 -15.204559 34.274971 -32.182556 96.085103 -26.251630 -27.588260 -96.266360 66.057528 -52.771922 46.811550 41.485501 -33.927456 172.896097 98.442755 -59.153302 -1.817127 -18.331699 -15.705007 14.130410 6.070860 -14.034370 4.480720 -79.692621 39.017270 22.318441 99.113577 57.621575 -58.631130 -95.277122 -18.218958 24.970338 -39.343350 2.710351 -10.210160 14.851040 10.416660 -13.883590 
-0.654740 19.436130 -5.080110 -37.498644 17.103370 17.236264 -15.814146 7.822284 6.727757 16.985592 -24.530261 -79.502035 -34.183896 51.498593 91.567807 -9.589278 33.205918 0.891558 8.039140 -2.883520 1.033250 18.911937 -3.885690 5.853031 33.893257 31.316156 -41.023513 -106.149566 26.639156 41.632489 -11.854833 -17.195359 18.520125 -2.623890 9.865700 -3.483620 -3.366142 -3.236815 -10.837351 42.955068 -26.548972 81.550531 -10.769428 13.779008 46.032488 15.474270 11.293441 -16.368214 50.937608 -35.601721 81.935470 -30.586250 -23.576770 -105.640120 58.222155 -50.457582 34.926702 42.651586 -31.745269 157.464682 143.986462 -84.487867 4.092286 -11.114338 -22.408663 13.975160 6.013190 -12.909410 4.549670 -78.219524 31.321627 13.036175 111.564398 52.772440 -43.052881 -93.689285 -17.158895 35.028207 -37.596051 2.824899 -9.198340 14.301560 9.317670 -13.025310 
-0.622690 19.648270 -5.050260 -35.635195 17.929914 18.221799 -15.916731 8.384416 6.837926 15.434564 -23.821961 -78.702426 -37.851115 49.898943 84.948321 -9.447739 32.066624 1.604247 8.257500 -2.585230 1.274850 18.777754 -3.635243 5.936553 29.399349 31.486078 -42.826322 -88.835602 32.318730 59.483095 -13.308786 -19.532333 18.617269 -2.791110 10.057590 -3.248770 -3.143899 -4.045778 -10.606579 47.057501 -26.884624 83.528618 -7.162166 9.211182 40.949346 9.296012 10.377698 -10.436546 56.570174 -38.933875 75.685799 -31.328460 -21.754690 -113.888370 71.976765 -49.914156 29.471533 31.649844 -35.981198 -179.292163 98.389310 -65.976856 9.518392 -19.604378 -20.156012 13.777590 5.965200 -12.680060 4.705920 -78.260593 38.688792 14.750251 117.285459 41.386713 -25.816294 -93.331295 -17.727507 29.756902 -33.642477 2.430095 -8.736780 14.188530 8.953520 -12.687530 
-0.503490 19.729000 -5.045940 -34.473886 13.835182 20.169065 -15.662292 7.898962 6.503690 9.651421 -25.031524 -77.842296 -19.668069 46.254759 102.216587 -9.192485 33.327661 1.031610 8.646030 -2.222400 1.874850 19.060131 -4.101799 6.159502 20.848960 31.844801 -46.721723 -60.867541 34.271668 90.273655 -15.362203 -23.001951 18.827003 -2.751550 10.001940 -3.050670 -3.878883 -2.277411 -10.720733 48.167028 -24.107660 83.959472 -13.929341 6.775008 44.108170 11.938713 12.536139 -10.036781 57.954953 -33.719127 73.286322 -31.877880 -19.754710 -114.848370 68.907779 -44.430122 29.700684 39.235603 -34.263514 177.314113 96.181161 -62.025185 13.852166 -16.222568 -16.467374 14.034640 5.818170 -12.354300 4.717440 -77.214183 28.657300 16.494062 119.327429 48.954384 -45.302074 -95.047372 9.827960 14.689689 -33.735440 4.176798 -8.590680 14.274790 8.803170 -12.710650 
-0.399950 19.817150 -5.174910 -34.881818 13.065812 18.646133 -15.325680 7.096793 6.245195 4.171569 -25.310739 -75.047091 -7.765658 38.487062 110.386927 -9.771797 32.527158 1.016227 8.971850 -1.841880 2.088390 19.466756 -4.917357 6.161765 16.860561 30.721510 -48.135763 -46.075639 26.296431 103.499749 -15.018226 -22.007841 18.522800 -2.634990 10.080430 -2.836420 -4.841643 0.651419 -10.872305 46.456527 -28.421036 86.367842 -25.172861 4.014799 46.717770 12.216700 20.153348 -13.492504 57.445695 -28.352797 73.932527 -30.017830 -19.019920 -114.831180 60.603621 -37.713153 25.329309 40.764662 -38.567981 165.132066 114.907684 -80.691893 17.184651 -14.119055 -20.916500 14.291540 5.799860 -12.172960 4.720860 -75.330459 14.173234 20.133851 130.187963 51.692733 -73.876585 -120.316393 66.623461 -21.379389 -23.929091 1.895665 -8.519760 14.299320 8.735950 -12.670290 
-0.171040 19.929010 -5.314430 -39.146088 14.827004 17.234704 -15.262237 6.903152 6.289110 3.004113 -24.700872 -75.464333 -2.529099 30.070731 110.434392 -10.388866 30.362632 1.678648 10.312890 -0.812270 2.949900 19.602716 -4.865283 6.190419 18.228285 30.752759 -47.156948 -40.202880 18.754514 105.902904 -14.688224 -20.430127 18.405009 -2.230050 9.515650 -2.322430 -4.976734 1.024373 -10.832959 50.107739 -35.029880 85.798482 -27.370217 3.057068 43.118014 11.144949 18.066151 -10.477545 47.538727 -24.914527 78.888820 -24.834890 -19.525100 -117.923630 62.582137 -30.373436 31.398456 43.968797 -43.994465 175.176959 95.817044 -63.333417 23.131955 -13.319688 -17.370143 14.395110 5.388540 -11.731150 5.115780 -74.342429 8.556852 26.523106 128.776427 51.983838 -74.409308 -147.804438 74.322384 -27.071837 -21.366015 -0.193947 -7.630510 13.717210 7.650420 -12.740750 
-0.192390 20.164730 -5.380020 -34.390844 18.676308 18.640994 -15.232784 7.055606 6.388399 2.033982 -27.505949 -74.999498 -8.153963 32.704881 105.387144 -10.330243 30.268527 1.430895 10.833200 -0.283360 3.138480 19.561750 -5.287145 5.645736 11.507480 28.351025 -49.761549 -34.996550 10.778743 110.148419 -14.110363 -18.989899 18.558582 -1.777190 8.836570 -2.385650 -4.903729 0.880749 -10.675358 49.458960 -36.281828 84.871791 -27.891085 0.487196 42.330764 10.988870 18.508052 -9.298473 46.909343 -22.061531 76.580820 -24.995650 -18.549410 -116.272310 63.003202 -26.765837 32.424895 47.574681 -42.568614 -179.304120 92.021080 -53.383063 23.566312 -12.564421 -16.611103 14.140360 5.232430 -11.618790 5.206140 -74.300831 6.687795 27.888990 128.857599 56.422001 -72.127286 -153.208950 77.058109 -24.794344 -21.114474 -0.348015 -7.304260 13.473250 7.312910 -13.048350 
0.112590 20.358120 -5.468490 -38.217585 15.221606 22.247118 -15.190380 6.732706 6.397992 7.141041 -21.922628 -80.171834 -13.990840 35.201322 98.188569 -10.497389 29.764528 1.518202 10.863010 -0.167810 3.009870 19.654734 -4.760004 6.245153 8.477212 33.049090 -54.332842 -27.679095 1.629700 111.465803 -13.475419 -17.932021 18.461529 -1.587540 8.614500 -2.537950 -5.065307 1.188949 -10.878292 48.295088 -35.803519 86.773319 -30.316412 2.221016 42.486538 11.140909 20.350549 -12.376750 44.227131 -21.782180 76.649555 -25.393120 -20.770200 -111.086320 61.243451 -23.748815 37.623143 51.774051 -39.193281 -179.520875 91.599102 -47.490717 23.463136 -11.816563 -16.651604 13.979470 5.157300 -11.640870 5.199560 -76.175146 0.324463 32.287788 123.436573 60.035422 -73.881830 168.231220 75.682330 -40.152471 -17.648306 1.164361 -7.277030 13.443510 7.224240 -13.061220 
0.454500 20.301760 -5.509580 -39.758863 15.722201 25.749247 -15.222170 6.960534 6.774103 0.154259 -27.159378 -83.345374 -0.245148 20.500717 103.203423 -11.323858 27.764103 2.047442 10.274780 -0.474770 2.702110 19.557027 -5.099485 5.883895 0.095324 32.769459 -58.253076 -12.825139 -21.989443 116.080543 -13.744767 -19.240842 18.137143 -1.618610 8.584440 -2.897280 -4.952186 1.617522 -10.726138 48.645389 -37.472012 81.444217 -32.038626 3.807802 46.559446 13.951363 22.147043 -18.557336 39.435677 -20.892557 83.287985 -24.516640 -24.869150 -102.183470 52.991665 -26.766206 42.827689 51.114911 -29.988649 172.201920 93.136011 -57.866691 18.987352 -13.401620 -18.627076 13.774260 5.115690 -11.722140 4.870350 -77.263263 -6.743856 35.926429 125.217103 69.945090 -82.467537 132.081108 65.296914 -43.895380 -16.792020 5.774956 -7.574710 13.550890 7.499310 -12.857700 
